<svg xmlns="http://www.w3.org/2000/svg" width="30" height="30" viewBox="0 0 30 30" fill="none">
  <path d="M16.341 18.2033C16.341 18.9289 15.7616 19.5171 15.0469 19.5171C14.3322 19.5171 13.7528 18.9289 13.7528 18.2033V11.722C13.7528 10.9964 14.3322 10.4082 15.0469 10.4082C15.7616 10.4082 16.341 10.9964 16.341 11.722V18.2033Z" fill="#626ED4"/>
  <path d="M14.137 4.24277C13.6316 3.7297 13.6316 2.89786 14.137 2.3848C14.6424 1.87173 15.4617 1.87173 15.9671 2.3848L23.2876 9.81668C23.793 10.3297 23.793 11.1616 23.2876 11.6746C22.7822 12.1877 21.9629 12.1877 21.4575 11.6746L14.137 4.24277Z" fill="#626ED4"/>
  <path d="M15.9619 19.207C15.4566 19.7201 14.6372 19.7201 14.1318 19.207C13.6264 18.6939 13.6264 17.8621 14.1318 17.349L21.4523 9.91714C21.9577 9.40408 22.7771 9.40408 23.2824 9.91714C23.7878 10.4302 23.7878 11.262 23.2824 11.7751L15.9619 19.207Z" fill="#626ED4"/>
  <path d="M15.863 25.7572C16.3683 26.2703 16.3683 27.1021 15.863 27.6152C15.3576 28.1283 14.5382 28.1283 14.0328 27.6152L6.71234 20.1833C6.20697 19.6703 6.20697 18.8384 6.71234 18.3254C7.21772 17.8123 8.03709 17.8123 8.54247 18.3254L15.863 25.7572Z" fill="#626ED4"/>
  <path d="M14.038 10.793C14.5434 10.2799 15.3628 10.2799 15.8682 10.793C16.3735 11.3061 16.3735 12.1379 15.8682 12.651L8.54766 20.0829C8.04228 20.5959 7.22291 20.5959 6.71753 20.0829C6.21216 19.5698 6.21216 18.738 6.71753 18.2249L14.038 10.793Z" fill="#626ED4"/>
</svg>
