<svg width="24" height="24" viewBox="0 0 24 24" fill="none" xmlns="http://www.w3.org/2000/svg">
<path d="M19.9705 13.299C19.305 13.4646 18.6395 13.5474 17.974 13.5474C13.8146 13.5474 10.487 10.2352 10.487 6.09488C10.487 5.43243 10.5702 4.76998 10.7366 4.10753C10.8198 3.85911 10.7366 3.52789 10.487 3.27947C10.2374 3.03105 9.98787 2.94825 9.65511 3.03105C5.74523 4.19034 3 7.83381 3 11.8913C3 16.9425 7.07626 21 12.1508 21C16.227 21 19.8873 18.2674 20.9688 14.2927C21.052 14.0443 20.9688 13.7131 20.7192 13.4646C20.5529 13.299 20.2201 13.2162 19.9705 13.299Z" fill="currentColor"/>
</svg>
